# MagicaVoxel @ Ephtracy

# group
g OnexOneRoom

# material
mtllib OnexOneRoom.mtl
usemtl palette

# normals
vn -1 0 0
vn 1 0 0
vn 0 0 1
vn 0 0 -1
vn 0 -1 0
vn 0 1 0

# texcoords
vt 0.669922 0.5
vt 0.978516 0.5

# verts
v -12.5 0 12.5
v -12.5 0 -12.5
v -12.5 1 2.5
v -12.5 1 -2.5
v -12.5 6 12.5
v -12.5 6 2.5
v -12.5 6 -2.5
v -12.5 6 -12.5
v 2.5 1 12.5
v 2.5 1 11.5
v 2.5 1 -11.5
v 2.5 1 -12.5
v 2.5 6 12.5
v 2.5 6 11.5
v 2.5 6 -11.5
v 2.5 6 -12.5
v 11.5 1 11.5
v 11.5 1 2.5
v 11.5 1 -2.5
v 11.5 1 -11.5
v 11.5 6 11.5
v 11.5 6 2.5
v 11.5 6 -2.5
v 11.5 6 -11.5
v -11.5 1 11.5
v -11.5 1 2.5
v -11.5 1 -2.5
v -11.5 1 -11.5
v -11.5 6 11.5
v -11.5 6 2.5
v -11.5 6 -2.5
v -11.5 6 -11.5
v -2.5 1 12.5
v -2.5 1 11.5
v -2.5 1 -11.5
v -2.5 1 -12.5
v -2.5 6 12.5
v -2.5 6 11.5
v -2.5 6 -11.5
v -2.5 6 -12.5
v 12.5 0 12.5
v 12.5 0 -12.5
v 12.5 1 2.5
v 12.5 1 -2.5
v 12.5 6 12.5
v 12.5 6 2.5
v 12.5 6 -2.5
v 12.5 6 -12.5
v -12.5 0 12.5
v -12.5 6 12.5
v -2.5 1 12.5
v -2.5 6 12.5
v 2.5 1 12.5
v 2.5 6 12.5
v 12.5 0 12.5
v 12.5 6 12.5
v -12.5 1 -2.5
v -12.5 6 -2.5
v -11.5 1 -2.5
v -11.5 6 -2.5
v 11.5 1 -2.5
v 11.5 6 -2.5
v 12.5 1 -2.5
v 12.5 6 -2.5
v -11.5 1 -11.5
v -11.5 6 -11.5
v -2.5 1 -11.5
v -2.5 6 -11.5
v 2.5 1 -11.5
v 2.5 6 -11.5
v 11.5 1 -11.5
v 11.5 6 -11.5
v -11.5 1 11.5
v -11.5 6 11.5
v -2.5 1 11.5
v -2.5 6 11.5
v 2.5 1 11.5
v 2.5 6 11.5
v 11.5 1 11.5
v 11.5 6 11.5
v -12.5 1 2.5
v -12.5 6 2.5
v -11.5 1 2.5
v -11.5 6 2.5
v 11.5 1 2.5
v 11.5 6 2.5
v 12.5 1 2.5
v 12.5 6 2.5
v -12.5 0 -12.5
v -12.5 6 -12.5
v -2.5 1 -12.5
v -2.5 6 -12.5
v 2.5 1 -12.5
v 2.5 6 -12.5
v 12.5 0 -12.5
v 12.5 6 -12.5
v -12.5 0 12.5
v 12.5 0 12.5
v -11.5 0 11.5
v 11.5 0 11.5
v -11.5 0 -11.5
v 11.5 0 -11.5
v -12.5 0 -12.5
v 12.5 0 -12.5
v -2.5 1 12.5
v 2.5 1 12.5
v -11.5 1 11.5
v -2.5 1 11.5
v 2.5 1 11.5
v 11.5 1 11.5
v -12.5 1 2.5
v -11.5 1 2.5
v 11.5 1 2.5
v 12.5 1 2.5
v -12.5 1 -2.5
v -11.5 1 -2.5
v 11.5 1 -2.5
v 12.5 1 -2.5
v -11.5 1 -11.5
v -2.5 1 -11.5
v 2.5 1 -11.5
v 11.5 1 -11.5
v -2.5 1 -12.5
v 2.5 1 -12.5
v -12.5 6 12.5
v -2.5 6 12.5
v 2.5 6 12.5
v 12.5 6 12.5
v -11.5 6 11.5
v -2.5 6 11.5
v 2.5 6 11.5
v 11.5 6 11.5
v -12.5 6 2.5
v -11.5 6 2.5
v 11.5 6 2.5
v 12.5 6 2.5
v -12.5 6 -2.5
v -11.5 6 -2.5
v 11.5 6 -2.5
v 12.5 6 -2.5
v -11.5 6 -11.5
v -2.5 6 -11.5
v 2.5 6 -11.5
v 11.5 6 -11.5
v -12.5 6 -12.5
v -2.5 6 -12.5
v 2.5 6 -12.5
v 12.5 6 -12.5

# faces
f 3/2/1 2/2/1 1/2/1
f 4/2/1 2/2/1 3/2/1
f 5/2/1 3/2/1 1/2/1
f 6/2/1 3/2/1 5/2/1
f 7/2/1 2/2/1 4/2/1
f 8/2/1 2/2/1 7/2/1
f 13/2/1 10/2/1 9/2/1
f 14/2/1 10/2/1 13/2/1
f 15/2/1 12/2/1 11/2/1
f 16/2/1 12/2/1 15/2/1
f 21/2/1 18/2/1 17/2/1
f 22/2/1 18/2/1 21/2/1
f 23/2/1 20/2/1 19/2/1
f 24/2/1 20/2/1 23/2/1
f 25/2/2 26/2/2 29/2/2
f 29/2/2 26/2/2 30/2/2
f 27/2/2 28/2/2 31/2/2
f 31/2/2 28/2/2 32/2/2
f 33/2/2 34/2/2 37/2/2
f 37/2/2 34/2/2 38/2/2
f 35/2/2 36/2/2 39/2/2
f 39/2/2 36/2/2 40/2/2
f 41/2/2 42/2/2 43/2/2
f 43/2/2 42/2/2 44/2/2
f 41/2/2 43/2/2 45/2/2
f 45/2/2 43/2/2 46/2/2
f 44/2/2 42/2/2 47/2/2
f 47/2/2 42/2/2 48/2/2
f 51/2/3 50/2/3 49/2/3
f 52/2/3 50/2/3 51/2/3
f 53/2/3 51/2/3 49/2/3
f 55/2/3 53/2/3 49/2/3
f 55/2/3 54/2/3 53/2/3
f 56/2/3 54/2/3 55/2/3
f 59/2/3 58/2/3 57/2/3
f 60/2/3 58/2/3 59/2/3
f 63/2/3 62/2/3 61/2/3
f 64/2/3 62/2/3 63/2/3
f 67/2/3 66/2/3 65/2/3
f 68/2/3 66/2/3 67/2/3
f 71/2/3 70/2/3 69/2/3
f 72/2/3 70/2/3 71/2/3
f 73/2/4 74/2/4 75/2/4
f 75/2/4 74/2/4 76/2/4
f 77/2/4 78/2/4 79/2/4
f 79/2/4 78/2/4 80/2/4
f 81/2/4 82/2/4 83/2/4
f 83/2/4 82/2/4 84/2/4
f 85/2/4 86/2/4 87/2/4
f 87/2/4 86/2/4 88/2/4
f 89/2/4 90/2/4 91/2/4
f 91/2/4 90/2/4 92/2/4
f 89/2/4 91/2/4 93/2/4
f 89/2/4 93/2/4 95/2/4
f 93/2/4 94/2/4 95/2/4
f 95/2/4 94/2/4 96/2/4
f 99/2/5 98/2/5 97/2/5
f 100/2/5 98/2/5 99/2/5
f 101/2/5 99/2/5 97/2/5
f 101/1/5 100/1/5 99/1/5
f 102/2/5 98/2/5 100/2/5
f 102/1/5 100/1/5 101/1/5
f 103/2/5 101/2/5 97/2/5
f 103/2/5 102/2/5 101/2/5
f 104/2/5 98/2/5 102/2/5
f 104/2/5 102/2/5 103/2/5
f 105/2/6 106/2/6 108/2/6
f 108/2/6 106/2/6 109/2/6
f 107/1/6 108/1/6 112/1/6
f 109/1/6 110/1/6 112/1/6
f 108/1/6 109/1/6 112/1/6
f 112/1/6 110/1/6 113/1/6
f 111/2/6 112/2/6 115/2/6
f 112/1/6 113/1/6 116/1/6
f 115/2/6 112/2/6 116/2/6
f 113/2/6 114/2/6 117/2/6
f 116/1/6 113/1/6 117/1/6
f 117/2/6 114/2/6 118/2/6
f 116/1/6 117/1/6 119/1/6
f 119/1/6 117/1/6 120/1/6
f 120/1/6 117/1/6 121/1/6
f 121/1/6 117/1/6 122/1/6
f 120/2/6 121/2/6 123/2/6
f 123/2/6 121/2/6 124/2/6
f 125/2/6 126/2/6 129/2/6
f 129/2/6 126/2/6 130/2/6
f 127/2/6 128/2/6 131/2/6
f 131/2/6 128/2/6 132/2/6
f 125/2/6 129/2/6 133/2/6
f 133/2/6 129/2/6 134/2/6
f 132/2/6 128/2/6 135/2/6
f 135/2/6 128/2/6 136/2/6
f 137/2/6 138/2/6 141/2/6
f 139/2/6 140/2/6 144/2/6
f 141/2/6 142/2/6 145/2/6
f 137/2/6 141/2/6 145/2/6
f 145/2/6 142/2/6 146/2/6
f 143/2/6 144/2/6 147/2/6
f 144/2/6 140/2/6 148/2/6
f 147/2/6 144/2/6 148/2/6
